<?xml version="1.0" encoding="UTF-8"?>
<svg version="1.1" xmlns="http://www.w3.org/2000/svg" width="307" height="335">
<path d="M0 0 C0.84981445 0.48621826 1.69962891 0.97243652 2.57519531 1.47338867 C5.35241177 3.06880555 8.11374807 4.68963391 10.875 6.3125 C12.80402853 7.43082494 14.7337264 8.54799606 16.6640625 9.6640625 C21.72320162 12.59666096 26.76855928 15.55219252 31.81054688 18.51416016 C36.82593862 21.45738639 41.85084313 24.38427017 46.875 27.3125 C52.85287369 30.79854015 58.83006009 34.28574234 64.8046875 37.77734375 C65.78566406 38.35025146 66.76664063 38.92315918 67.77734375 39.51342773 C69.75187233 40.66691178 71.72583535 41.82136452 73.69921875 42.97680664 C78.48310805 45.77276422 83.27643625 48.54882383 88.1008606 51.2743988 C89.87488032 52.2767681 91.64687515 53.28263606 93.41845703 54.28930664 C95.65725364 55.55924417 97.90018339 56.82193396 100.14794922 58.07592773 C117.594946 67.99679597 117.594946 67.99679597 120.43178749 77.09898949 C120.96977646 79.78583656 121.0138609 82.29977691 121.02890015 85.04116821 C121.03750061 86.21019684 121.04610107 87.37922546 121.05496216 88.5836792 C121.06135208 90.50219696 121.06135208 90.50219696 121.06787109 92.45947266 C121.07577686 93.82313239 121.0840461 95.18679006 121.09265137 96.55044556 C121.11882122 101.02579769 121.13417607 105.50115893 121.1484375 109.9765625 C121.15379965 111.52040996 121.15917716 113.06425736 121.16456985 114.60810471 C121.18619307 121.0334295 121.20492706 127.45875183 121.21619225 133.88410378 C121.2324144 143.07463697 121.265556 152.26474629 121.32259309 161.45511973 C121.36137872 167.92664065 121.38083521 174.39804862 121.38611281 180.86968267 C121.38975512 184.72999189 121.40165544 188.58984852 121.43421555 192.45003128 C121.46444815 196.0863603 121.47055486 199.72196648 121.45883179 203.35839462 C121.45850834 205.31504875 121.48287359 207.27165929 121.50820923 209.22814941 C121.44891295 217.68188982 120.04760295 224.59129897 114.31484032 231.07778358 C109.62468239 235.58527266 103.56718713 238.55570292 97.92514038 241.68783569 C94.79638227 243.42531564 91.68227552 245.18876287 88.56640625 246.94921875 C87.92612991 247.31016129 87.28585358 247.67110382 86.62617493 248.04298401 C80.04462185 251.76198301 73.55223545 255.62328403 67.0625 259.5 C57.73633245 265.06027272 48.34654759 270.48517855 38.87817383 275.79931641 C33.29946164 278.93278684 27.75528894 282.11430612 22.25 285.375 C15.73314898 289.23100245 9.19037625 293.03963928 2.625 296.8125 C1.73087402 297.32949463 0.83674805 297.84648926 -0.08447266 298.37915039 C-0.92800293 298.86246826 -1.7715332 299.34578613 -2.640625 299.84375 C-3.38602539 300.27236328 -4.13142578 300.70097656 -4.89941406 301.14257812 C-9.98582962 303.81634988 -14.34450516 305.04754373 -20.125 304.3125 C-22.66994817 303.38128033 -24.77479166 302.46364965 -27.125 301.1875 C-28.13687378 300.65950806 -28.13687378 300.65950806 -29.16918945 300.12084961 C-38.53420355 295.15333851 -47.63792393 289.6978303 -56.75927734 284.30126953 C-62.08958998 281.15164479 -67.43320543 278.02478164 -72.7756958 274.89587402 C-74.62862571 273.81037596 -76.4811341 272.7241622 -78.33349609 271.63769531 C-86.02931206 267.12397956 -93.73063028 262.6198256 -101.4375 258.125 C-102.3965625 257.56490234 -103.355625 257.00480469 -104.34375 256.42773438 C-109.44335399 253.45124487 -114.55062215 250.48886191 -119.66796875 247.54296875 C-120.74844482 246.91865967 -121.8289209 246.29435059 -122.94213867 245.65112305 C-124.9958545 244.46476622 -127.05184912 243.2823414 -129.1105957 242.10473633 C-149.34518944 230.39457028 -149.34518944 230.39457028 -153.125 219.3125 C-153.38226891 216.51476479 -153.38226891 216.51476479 -153.39242554 213.40542603 C-153.40095551 212.2222731 -153.40948547 211.03912018 -153.41827393 209.82011414 C-153.41736755 208.5306337 -153.41646118 207.24115326 -153.41552734 205.91259766 C-153.42151498 204.53406918 -153.42832107 203.15554406 -153.43588257 201.77702332 C-153.45352547 198.03934729 -153.45823721 194.30176288 -153.45951414 190.56404924 C-153.46093722 188.22703 -153.46520976 185.89003395 -153.47050858 183.55302048 C-153.48900286 175.39470698 -153.4971799 167.23645877 -153.49560547 159.078125 C-153.49440407 151.48167938 -153.5155074 143.88551789 -153.5470928 136.28914416 C-153.57327062 129.75988737 -153.58397214 123.23072331 -153.58269465 116.70141447 C-153.58218548 112.8049777 -153.58784376 108.90879355 -153.60905075 105.01240921 C-153.6284589 101.34657786 -153.6285405 97.68123944 -153.61401749 94.0153904 C-153.61093989 92.03555023 -153.62758762 90.05570988 -153.64489746 88.07594299 C-153.5849843 79.5857162 -152.48597627 75.24964363 -146.9375 68.75 C-139.80800419 62.57110363 -131.41731084 58.08467504 -123.25 53.4375 C-120.92889396 52.10812723 -118.6083645 50.77782307 -116.2890625 49.4453125 C-115.69695984 49.10526184 -115.10485718 48.76521118 -114.49481201 48.41485596 C-108.16896804 44.77460292 -101.89601419 41.04625737 -95.625 37.3125 C-85.65524899 31.38078267 -75.63531802 25.5441189 -65.57592773 19.76586914 C-57.53992811 15.14481607 -49.54844021 10.4528556 -41.59057617 5.69848633 C-16.01520026 -9.52250666 -16.01520026 -9.52250666 0 0 Z " fill="#402A63" transform="translate(170.125,16.6875)"/>
<path d="M0 0 C2.41333008 1.12402344 2.41333008 1.12402344 5.01953125 2.609375 C5.98721436 3.15464844 6.95489746 3.69992188 7.9519043 4.26171875 C8.95777588 4.83535156 9.96364746 5.40898437 11 6 C12.98091928 7.10049256 14.96269767 8.19944005 16.9453125 9.296875 C28.27851267 15.62086066 39.55143225 22.023503 50.71191406 28.64697266 C55.27609986 31.34593955 59.85756449 34.01537865 64.4375 36.6875 C65.43426758 37.26991455 66.43103516 37.8523291 67.45800781 38.45239258 C73.02796536 41.70212296 78.61106187 44.92721881 84.2109375 48.125 C85.40832728 48.810228 86.60567469 49.49553003 87.80297852 50.1809082 C90.1026324 51.49726016 92.40557223 52.80718769 94.71069336 54.11401367 C95.75104736 54.70931885 96.79140137 55.30462402 97.86328125 55.91796875 C98.78407471 56.44156982 99.70486816 56.9651709 100.65356445 57.50463867 C102.77271657 58.8551544 104.27198807 60.20407009 106 62 C104.65029869 62.0154612 104.65029869 62.0154612 103.27333069 62.03123474 C94.81179214 62.12903341 86.3503264 62.2315222 77.88890934 62.33933926 C73.53835194 62.39460785 69.18778788 62.44803399 64.8371582 62.49731445 C60.6420379 62.54490014 56.44700188 62.59724058 52.25198174 62.65294075 C50.64795455 62.67339066 49.04390423 62.69209929 47.4398365 62.70907402 C45.20077231 62.73305997 42.96186884 62.76312194 40.72290039 62.79467773 C39.44604874 62.81022202 38.16919708 62.8257663 36.85365295 62.84178162 C34.10148193 62.67622553 34.10148193 62.67622553 33 64 C32.9014349 66.76574438 32.86285503 69.51104113 32.859375 72.27734375 C32.84102529 74.00587232 32.82145303 75.73438826 32.80078125 77.46289062 C32.77197901 80.18811984 32.75000451 82.9125489 32.74951172 85.63793945 C32.72159963 107.43129846 32.72159963 107.43129846 23.9375 116.3125 C17.56169755 121.18328471 9.75647121 123.51326622 2.15820312 125.77050781 C-13.03044058 130.28624771 -27.24444801 136.39108053 -35.34765625 150.82421875 C-36.68835682 153.40102623 -38.00310919 155.98737411 -39.30859375 158.58203125 C-47.94567389 175.65082504 -56.37533757 183.85473298 -74.890625 190.00390625 C-78.01787218 191.02834929 -81.14709263 192.03136392 -84.296875 192.984375 C-94.8037865 196.2608724 -103.54353214 200.8518216 -110 210 C-110.53625 211.134375 -111.0725 212.26875 -111.625 213.4375 C-113 216 -113 216 -115.32421875 216.8515625 C-118 217 -118 217 -120.16796875 215.77734375 C-121.16763672 214.86662109 -121.16763672 214.86662109 -122.1875 213.9375 C-122.86167969 213.34839844 -123.53585938 212.75929687 -124.23046875 212.15234375 C-129.10772021 206.21996946 -128.28997499 198.83830754 -128.2746582 191.57226562 C-128.27976913 190.32281662 -128.28488007 189.07336761 -128.29014587 187.78605652 C-128.30164219 184.37074834 -128.30411915 180.95568332 -128.30158257 177.54037285 C-128.30051043 174.68498618 -128.30540231 171.82962172 -128.310188 168.97423983 C-128.32126888 162.23687854 -128.32172822 155.49957301 -128.31567383 148.76220703 C-128.30963083 141.81957116 -128.32195646 134.87713779 -128.3432439 127.93453646 C-128.36087257 121.96493125 -128.36685937 115.99539044 -128.36360615 110.02576017 C-128.36179559 106.46420499 -128.36440697 102.90279435 -128.37832069 99.34126282 C-128.39325594 95.37000607 -128.3839178 91.3990065 -128.37231445 87.42773438 C-128.37995819 86.25248703 -128.38760193 85.07723969 -128.39547729 83.86637878 C-128.35880444 78.19366979 -128.31981452 73.84480325 -125 69 C-118.83739825 63.34372932 -110.79484398 59.44673582 -103.53845215 55.37811279 C-100.43609065 53.6380503 -97.34361402 51.88055209 -94.25 50.125 C-93.63002136 49.77368011 -93.01004272 49.42236023 -92.37127686 49.06039429 C-86.79337198 45.89485266 -81.26361016 42.65122518 -75.75 39.375 C-67.35466393 34.3897188 -58.9342511 29.45005082 -50.49609375 24.53759766 C-44.71624233 21.17132085 -38.94255094 17.79487068 -33.17578125 14.40625 C-32.51569565 14.01854431 -31.85561005 13.63083862 -31.17552185 13.23138428 C-27.24834719 10.92468923 -27.24834719 10.92468923 -23.32272339 8.61535645 C-21.51267949 7.5497431 -19.70173086 6.48568214 -17.890625 5.421875 C-16.84938477 4.80924805 -15.80814453 4.19662109 -14.73535156 3.56542969 C-9.71657297 0.69320474 -5.91280917 -1.13743924 0 0 Z " fill="#FDF5EC" transform="translate(158,26)"/>
<path d="M0 0 C0.84981445 0.48621826 1.69962891 0.97243652 2.57519531 1.47338867 C5.35241177 3.06880555 8.11374807 4.68963391 10.875 6.3125 C12.80402853 7.43082494 14.7337264 8.54799606 16.6640625 9.6640625 C21.72320162 12.59666096 26.76855928 15.55219252 31.81054688 18.51416016 C36.82593862 21.45738639 41.85084313 24.38427017 46.875 27.3125 C52.85287369 30.79854015 58.83006009 34.28574234 64.8046875 37.77734375 C65.78566406 38.35025146 66.76664063 38.92315918 67.77734375 39.51342773 C69.75187233 40.66691178 71.72583535 41.82136452 73.69921875 42.97680664 C78.48310805 45.77276422 83.27643625 48.54882383 88.1008606 51.2743988 C89.87488032 52.2767681 91.64687515 53.28263606 93.41845703 54.28930664 C95.65725364 55.55924417 97.90018339 56.82193396 100.14794922 58.07592773 C117.594946 67.99679597 117.594946 67.99679597 120.43178749 77.09898949 C120.96977646 79.78583656 121.0138609 82.29977691 121.02890015 85.04116821 C121.03750061 86.21019684 121.04610107 87.37922546 121.05496216 88.5836792 C121.06135208 90.50219696 121.06135208 90.50219696 121.06787109 92.45947266 C121.07577686 93.82313239 121.0840461 95.18679006 121.09265137 96.55044556 C121.11882122 101.02579769 121.13417607 105.50115893 121.1484375 109.9765625 C121.15379965 111.52040996 121.15917716 113.06425736 121.16456985 114.60810471 C121.18619307 121.0334295 121.20492706 127.45875183 121.21619225 133.88410378 C121.2324144 143.07463697 121.265556 152.26474629 121.32259309 161.45511973 C121.36137872 167.92664065 121.38083521 174.39804862 121.38611281 180.86968267 C121.38975512 184.72999189 121.40165544 188.58984852 121.43421555 192.45003128 C121.46444815 196.0863603 121.47055486 199.72196648 121.45883179 203.35839462 C121.45850834 205.31504875 121.48287359 207.27165929 121.50820923 209.22814941 C121.44894949 217.67667992 120.03927969 224.55191826 114.34778404 231.05840492 C108.91628661 236.32601157 101.63111674 239.65745866 95.0625 243.3125 C93.21978492 244.34676841 91.37833203 245.38324422 89.53738403 246.4206543 C88.34158063 247.09359539 87.14455302 247.76436612 85.94625854 248.43286133 C81.48370449 250.93131114 77.14717485 253.59657232 72.85668945 256.37890625 C70.875 257.3125 70.875 257.3125 67.875 256.3125 C69.16313342 255.47371545 70.45563256 254.64163217 71.75 253.8125 C72.46929687 253.3484375 73.18859375 252.884375 73.9296875 252.40625 C75.875 251.3125 75.875 251.3125 77.875 251.3125 C77.215 250.6525 76.555 249.9925 75.875 249.3125 C74.39 250.7975 74.39 250.7975 72.875 252.3125 C73.019375 251.755625 73.16375 251.19875 73.3125 250.625 C73.71039993 248.98918918 74.05999515 247.34127548 74.375 245.6875 C74.875 243.3125 74.875 243.3125 75.875 241.3125 C75.215 240.9825 74.555 240.6525 73.875 240.3125 C75.6859411 239.18499232 77.49890334 238.06073123 79.3125 236.9375 C79.88145996 236.58389404 80.45041992 236.23028809 81.03662109 235.8659668 C84.46075265 233.75208499 87.91345632 231.70857132 91.41796875 229.73046875 C92.55890991 229.08053955 92.55890991 229.08053955 93.72290039 228.41748047 C95.21764497 227.56906428 96.71802441 226.73048456 98.22436523 225.90283203 C98.91602783 225.50821777 99.60769043 225.11360352 100.3203125 224.70703125 C100.93406738 224.36518799 101.54782227 224.02334473 102.18017578 223.67114258 C105.45717754 221.04415975 106.76866387 218.242504 107.24249268 214.09844971 C107.23884705 212.88679138 107.23520142 211.67513306 107.23144531 210.42675781 C107.23451187 209.4185775 107.23451187 209.4185775 107.23764038 208.39002991 C107.24063433 206.18161284 107.22221982 203.97395255 107.203125 201.765625 C107.20006589 200.22817164 107.19819092 198.6907155 107.19744873 197.15325928 C107.19285504 193.93881549 107.17846066 190.72462353 107.15625 187.51025391 C107.12787298 183.38180594 107.11702801 179.25355532 107.1125679 175.12501907 C107.10842137 171.95440687 107.0986119 168.78383486 107.08669281 165.6132431 C107.08098209 164.09013949 107.07622605 162.567032 107.07242584 161.04392242 C107.06558544 158.92276632 107.05196639 156.80176966 107.03613281 154.68066406 C107.02930481 153.47218811 107.02247681 152.26371216 107.01544189 151.01861572 C107.18213197 148.39646252 107.18213197 148.39646252 105.875 147.3125 C93.335 146.9825 80.795 146.6525 67.875 146.3125 C67.875 178.3225 67.875 210.3325 67.875 243.3125 C70.35 242.3225 70.35 242.3225 72.875 241.3125 C72.875 241.9725 72.875 242.6325 72.875 243.3125 C70.5 244.375 70.5 244.375 67.875 245.3125 C67.215 244.9825 66.555 244.6525 65.875 244.3125 C65.875 213.2925 65.875 182.2725 65.875 150.3125 C63.235 150.6425 60.595 150.9725 57.875 151.3125 C57.83741577 153.07678345 57.83741577 153.07678345 57.79907227 154.87670898 C57.70517194 159.22464622 57.60490952 163.57241716 57.50268555 167.92016602 C57.45927067 169.80489218 57.41760057 171.68965936 57.37768555 173.57446289 C57.32014107 176.27763249 57.25640196 178.98059436 57.19140625 181.68359375 C57.17469376 182.53150986 57.15798126 183.37942596 57.14076233 184.2530365 C56.98887171 190.19862829 56.98887171 190.19862829 55.875 191.3125 C53.53246218 191.40742722 51.21953896 191.43809791 48.87670898 191.42602539 C47.77921326 191.42624443 47.77921326 191.42624443 46.6595459 191.4264679 C44.23003216 191.42576867 41.80059417 191.41797585 39.37109375 191.41015625 C37.69100486 191.4082921 36.01091543 191.40686819 34.33082581 191.40586853 C29.90026357 191.40204307 25.4697339 191.39221256 21.03918457 191.38116455 C16.52157024 191.37095103 12.00395066 191.36637104 7.48632812 191.36132812 C-1.38412893 191.35059031 -10.25456176 191.33351356 -19.125 191.3125 C-19.455 191.9725 -19.785 192.6325 -20.125 193.3125 C-20.785 192.6525 -21.445 191.9925 -22.125 191.3125 C-18.41869058 188.95078237 -15.20368418 189.07073577 -10.87792969 189.08544922 C-10.15558136 189.08515717 -9.43323303 189.08486511 -8.68899536 189.08456421 C-6.30816517 189.08595438 -3.92765033 189.10150066 -1.546875 189.1171875 C0.10650461 189.12091875 1.75988643 189.12376519 3.41326904 189.12576294 C7.75999074 189.13339062 12.10657829 189.15303167 16.45324707 189.1751709 C20.89068792 189.19564796 25.3281505 189.20476864 29.765625 189.21484375 C38.46881149 189.23627839 47.17188904 189.27040388 55.875 189.3125 C55.86611755 188.73700409 55.85723511 188.16150818 55.8480835 187.568573 C55.75943099 181.56632441 55.69919163 175.56426252 55.65527344 169.56152344 C55.63518684 167.32283979 55.6079122 165.08420842 55.57324219 162.84570312 C55.52459536 159.62356651 55.50200126 156.40212499 55.484375 153.1796875 C55.46372986 152.18258759 55.44308472 151.18548767 55.42181396 150.15817261 C55.41996938 144.41591572 55.76512033 140.70566844 59.875 136.3125 C64.34287232 133.45605019 69.64274639 134.0593349 74.76953125 134.1171875 C75.71688644 134.1200174 76.66424164 134.12284729 77.64030457 134.12576294 C80.65616666 134.13692813 83.67172816 134.16202611 86.6875 134.1875 C88.73632383 134.19753453 90.78515232 134.20665955 92.83398438 134.21484375 C97.84777148 134.23685551 102.86133483 134.27136029 107.875 134.3125 C107.83342148 127.81585586 107.76118583 121.32007473 107.66748047 114.82397461 C107.63922981 112.61344189 107.61803575 110.40280738 107.60400391 108.19213867 C107.58263131 105.01688366 107.53600969 101.8428578 107.484375 98.66796875 C107.48253204 97.18190376 107.48253204 97.18190376 107.48065186 95.66581726 C107.46093323 94.74508926 107.4412146 93.82436127 107.42089844 92.87573242 C107.41201599 92.0652092 107.40313354 91.25468597 107.39398193 90.41960144 C107.02358468 88.19558606 107.02358468 88.19558606 105.27661133 86.55432129 C102.03936751 84.88041251 99.54471631 84.91240883 95.90332031 84.88012695 C95.2102327 84.8699353 94.51714508 84.85974365 93.80305481 84.84924316 C91.51966249 84.81912809 89.23668977 84.8098499 86.953125 84.80078125 C85.36699023 84.78393339 83.7808688 84.76578299 82.19476318 84.74638367 C78.02569752 84.69888889 73.85668597 84.66907631 69.68743896 84.64294434 C65.43084021 84.61313608 61.17442784 84.56660669 56.91796875 84.52148438 C48.57040409 84.43545724 40.22282245 84.36810951 31.875 84.3125 C31.89594727 85.1689209 31.91689453 86.0253418 31.93847656 86.90771484 C32.00727201 90.13195709 32.05709826 93.35582119 32.09472656 96.58056641 C32.11465342 97.96741156 32.1418056 99.35417482 32.17675781 100.74072266 C32.47747752 112.99062848 30.73346509 123.09532857 22.0078125 132.27734375 C14.28311797 139.65841308 5.91973915 142.7231995 -4.14135742 145.79394531 C-18.11554401 150.06853979 -30.20289339 154.12509083 -38.125 167.3125 C-39.67982125 170.42428216 -41.12411023 173.58301631 -42.5625 176.75 C-50.23628726 193.64316093 -60.80743227 202.36933508 -78.15234375 208.91796875 C-81.50668184 210.1320544 -84.89777997 211.15689163 -88.32250977 212.15161133 C-97.03023742 214.6902863 -106.12564574 217.85811998 -111.8125 225.375 C-113.29586998 228.6949233 -113.68373807 230.72061241 -113.125 234.3125 C-110.91149316 237.6978634 -106.58855256 239.4173486 -103.125 241.3125 C-105.105 242.3025 -105.105 242.3025 -107.125 243.3125 C-106.465 243.6425 -105.805 243.9725 -105.125 244.3125 C-105.125 245.6325 -105.125 246.9525 -105.125 248.3125 C-106.115 248.3125 -107.105 248.3125 -108.125 248.3125 C-108.125 249.9625 -108.125 251.6125 -108.125 253.3125 C-116.11615749 249.62038293 -123.76020832 245.34295602 -131.375 240.9375 C-132.30908691 240.40874268 -133.24317383 239.87998535 -134.20556641 239.33520508 C-142.45869079 234.50315989 -150.47184913 228.97663535 -153.125 219.3125 C-153.57076583 214.77047397 -153.54506458 210.24650515 -153.52905273 205.68554688 C-153.53476169 204.30672148 -153.54172799 202.92790081 -153.54985046 201.54908752 C-153.56773738 197.8197435 -153.56662221 194.09063534 -153.56090808 190.36126137 C-153.55781027 187.24246587 -153.56391512 184.12371529 -153.56994683 181.0049262 C-153.58397524 173.64566123 -153.58244433 166.28651239 -153.57104492 158.92724609 C-153.55956016 151.34551299 -153.57364902 143.76413348 -153.6004414 136.18244696 C-153.62261851 129.66163063 -153.62923141 123.14092514 -153.62336498 116.6200738 C-153.61999961 112.73038923 -153.62238256 108.84093139 -153.63961601 104.95127869 C-153.65511581 101.29360587 -153.65109665 97.63645602 -153.63231087 93.97880363 C-153.62688565 92.00376948 -153.64111523 90.02871167 -153.65600586 88.0537262 C-153.58572286 79.57827347 -152.4769128 75.23902643 -146.9375 68.75 C-139.80800419 62.57110363 -131.41731084 58.08467504 -123.25 53.4375 C-120.92889396 52.10812723 -118.6083645 50.77782307 -116.2890625 49.4453125 C-115.69695984 49.10526184 -115.10485718 48.76521118 -114.49481201 48.41485596 C-108.16896804 44.77460292 -101.89601419 41.04625737 -95.625 37.3125 C-85.65524899 31.38078267 -75.63531802 25.5441189 -65.57592773 19.76586914 C-57.53992811 15.14481607 -49.54844021 10.4528556 -41.59057617 5.69848633 C-16.01520026 -9.52250666 -16.01520026 -9.52250666 0 0 Z M-27.9375 13.3125 C-28.69611328 13.75182861 -29.45472656 14.19115723 -30.23632812 14.64379883 C-32.87740698 16.18120945 -35.50123414 17.74573826 -38.125 19.3125 C-40.21182378 20.54627648 -42.29908479 21.77931365 -44.38671875 23.01171875 C-47.79674222 25.02801946 -51.20533789 27.04660179 -54.60864258 29.07421875 C-62.40965053 33.72058032 -70.25033357 38.29164748 -78.125 42.8125 C-88.33480926 48.67752776 -98.48700786 54.63249367 -108.60180664 60.65942383 C-113.53489038 63.59847563 -118.47085514 66.52574464 -123.4609375 69.3671875 C-124.24976318 69.81924561 -125.03858887 70.27130371 -125.85131836 70.73706055 C-127.26397124 71.54391197 -128.68107118 72.34305879 -130.10375977 73.13208008 C-135.05201678 75.96939234 -138.30012963 78.83788888 -140.125 84.3125 C-140.22144607 86.04745159 -140.25993981 87.78587701 -140.26544189 89.52349854 C-140.27115204 90.60293228 -140.27686218 91.68236603 -140.28274536 92.79450989 C-140.28386322 93.97897202 -140.28498108 95.16343414 -140.28613281 96.38378906 C-140.29109772 97.6311937 -140.29606262 98.87859833 -140.30117798 100.1638031 C-140.31328909 103.58755564 -140.32074564 107.01124708 -140.32518864 110.43501377 C-140.32812121 112.57535884 -140.33222642 114.71569857 -140.33669281 116.85604095 C-140.350367 123.55640744 -140.36003348 130.25676169 -140.3638947 136.95714116 C-140.36837248 144.68452739 -140.38590754 152.41173647 -140.4148953 160.13906884 C-140.436537 166.116263 -140.44660034 172.09340742 -140.44793582 178.07064033 C-140.44898227 181.63843329 -140.45485542 185.20605972 -140.47275543 188.77381134 C-140.49235142 192.75714281 -140.4879372 196.74025435 -140.48144531 200.72363281 C-140.49526749 202.48818062 -140.49526749 202.48818062 -140.5093689 204.28837585 C-140.47331819 211.3488713 -140.06550331 216.689131 -135.4765625 222.34375 C-134.62191406 223.07078125 -134.62191406 223.07078125 -133.75 223.8125 C-132.90308594 224.57046875 -132.90308594 224.57046875 -132.0390625 225.34375 C-130.10305836 226.51218749 -130.10305836 226.51218749 -127.57421875 226.2578125 C-124.3651673 225.01923124 -123.83354819 223.72959638 -122.3125 220.6875 C-114.39416423 206.59929347 -99.59337587 202.89526102 -84.99804688 198.43945312 C-72.5557478 194.47362052 -62.34194175 188.68193104 -56.0625 176.9140625 C-55.06976858 174.92859965 -54.09078456 172.93620923 -53.125 170.9375 C-44.37427758 152.96810209 -33.96500526 143.09775708 -15.125 136.3125 C-12.16307269 135.37314776 -9.18077207 134.5208598 -6.1875 133.6875 C3.2997735 131.03988879 11.41718623 127.94576905 16.875 119.3125 C19.70012349 113.74942624 20.32680299 109.3272138 20.3515625 103.1328125 C20.36714203 102.27944305 20.38272156 101.42607361 20.39877319 100.54684448 C20.44599512 97.84373775 20.4739781 95.14088666 20.5 92.4375 C20.53648204 89.71286735 20.57701094 86.98838009 20.62265015 84.2638855 C20.64990403 82.5734818 20.67124348 80.88297067 20.68618774 79.19241333 C20.76427926 73.42322074 20.76427926 73.42322074 21.875 72.3125 C24.11357356 72.18838418 26.35605484 72.13446977 28.59790039 72.10717773 C29.65150505 72.09232834 29.65150505 72.09232834 30.72639465 72.07717896 C33.05844704 72.04547878 35.39051984 72.02077312 37.72265625 71.99609375 C39.33549035 71.97553156 40.94831896 71.95453529 42.56114197 71.93312073 C46.81409275 71.87782408 51.06709277 71.82844844 55.32012939 71.78027344 C59.65682375 71.73011369 63.99344627 71.67439885 68.33007812 71.61914062 C76.84499141 71.51146625 85.35996465 71.41004205 93.875 71.3125 C90.54034547 68.60469065 87.27786267 66.25957659 83.54296875 64.1328125 C82.50978516 63.54113281 81.47660156 62.94945312 80.41210938 62.33984375 C79.30673828 61.71207031 78.20136719 61.08429688 77.0625 60.4375 C75.30016904 59.43009979 73.53875468 58.42110942 71.77737427 57.41204834 C70.57490929 56.72329757 69.37216861 56.03502794 68.16915894 55.347229 C62.38354137 52.03799579 56.62733506 48.67921589 50.875 45.3125 C41.43779952 39.7950432 31.97207041 34.32854241 22.49584961 28.87841797 C14.16594296 24.07903021 5.88389384 19.20220128 -2.36181641 14.25952148 C-3.63484619 13.50070679 -3.63484619 13.50070679 -4.93359375 12.7265625 C-5.67407959 12.2826416 -6.41456543 11.8387207 -7.17749023 11.38134766 C-14.78094273 7.20836094 -21.07442981 9.16619576 -27.9375 13.3125 Z " fill="#3D2960" transform="translate(170.125,16.6875)"/>
<path d="M0 0 C9.17082849 -0.09273712 18.34149522 -0.16378355 27.51269054 -0.20724869 C31.7714057 -0.22811132 36.02979973 -0.25640431 40.28833008 -0.30175781 C44.3991492 -0.34526351 48.5096597 -0.36914707 52.6206913 -0.37950897 C54.18799001 -0.38689193 55.75527209 -0.40130936 57.32243919 -0.42292023 C59.52026048 -0.45201852 61.71681157 -0.45595354 63.91479492 -0.45410156 C65.16499924 -0.46298401 66.41520355 -0.47186646 67.70329285 -0.48101807 C71.65157875 0.09507097 73.30386992 1.08321598 76 4 C76.60127258 6.22735596 76.60127258 6.22735596 76.56762695 8.67675781 C76.5672493 9.59741028 76.56687164 10.51806274 76.56648254 11.46661377 C76.54067612 12.45216248 76.51486969 13.43771118 76.48828125 14.453125 C76.47766914 15.97616241 76.47766914 15.97616241 76.46684265 17.52996826 C76.43886958 20.77073053 76.37612355 24.0097606 76.3125 27.25 C76.28742099 29.4478917 76.26460714 31.64581051 76.24414062 33.84375 C76.18903371 39.22975697 76.10537845 44.61475474 76 50 C74.09323486 50.02187378 74.09323486 50.02187378 72.14794922 50.04418945 C67.41768708 50.10229807 62.6878947 50.17953048 57.95800781 50.26245117 C55.9134892 50.29564141 53.86888026 50.32369163 51.82421875 50.34643555 C48.87981794 50.38008993 45.93624046 50.43241166 42.9921875 50.48828125 C42.0825827 50.49467117 41.17297791 50.5010611 40.23580933 50.50764465 C35.13717271 50.62493734 31.33722462 51.02001078 27 54 C25.13599979 56.96792826 24.73718362 59.29461583 24.68115234 62.76855469 C24.66128265 63.70922791 24.64141296 64.64990112 24.62094116 65.61907959 C24.60938995 66.62650208 24.59783875 67.63392456 24.5859375 68.671875 C24.56657135 69.70942932 24.5472052 70.74698364 24.5272522 71.815979 C24.46751158 75.12723592 24.4210927 78.43852771 24.375 81.75 C24.33681518 83.99610884 24.29776315 86.24220312 24.2578125 88.48828125 C24.16181458 93.99205815 24.07675084 99.49592288 24 105 C22.63269997 105.00546844 22.63269997 105.00546844 21.23777771 105.01104736 C12.63079718 105.04897612 4.02419369 105.10588437 -4.58252048 105.18390274 C-9.00693264 105.22334546 -13.43114673 105.25554955 -17.85571289 105.27099609 C-22.12886805 105.28618397 -26.40147857 105.32066682 -30.67439079 105.36830902 C-32.3013427 105.38310095 -33.92837238 105.39103976 -35.55539131 105.39188385 C-37.84163013 105.39426199 -40.12637403 105.42140626 -42.41235352 105.45410156 C-43.71141129 105.46298401 -45.01046906 105.47186646 -46.34889221 105.48101807 C-50.99967217 106.14209709 -53.19524474 107.22822084 -57 110 C-60.21382096 114.58485102 -60.44259263 118.95226074 -60.43237305 124.39208984 C-60.44766052 125.62235397 -60.44766052 125.62235397 -60.46325684 126.87747192 C-60.49330457 129.57203068 -60.50264011 132.26623345 -60.51171875 134.9609375 C-60.52857154 136.83567478 -60.5467226 138.71040081 -60.56611633 140.58511353 C-60.61355723 145.50710533 -60.64340484 150.42905147 -60.66955566 155.35119629 C-60.69939099 160.37875381 -60.74591113 165.40615413 -60.79101562 170.43359375 C-60.87698151 180.28898017 -60.94435669 190.14439899 -61 200 C-65.3982241 198.5903672 -69.10940976 196.94153886 -73.0859375 194.578125 C-73.65569305 194.24181061 -74.22544861 193.90549622 -74.81246948 193.55899048 C-76.66978053 192.46119029 -78.52233471 191.355619 -80.375 190.25 C-81.67900242 189.47742014 -82.98336934 188.70545519 -84.28808594 187.93408203 C-86.27697317 186.75797005 -88.26554449 185.58135084 -90.25280762 184.40249634 C-95.26792648 181.42751665 -100.30244772 178.48719033 -105.34594727 175.56054688 C-114.9080407 170.0105937 -124.43644257 164.40371231 -133.9375 158.75 C-135.02901367 158.10530762 -136.12052734 157.46061523 -137.24511719 156.79638672 C-138.74606934 155.89944092 -138.74606934 155.89944092 -140.27734375 154.984375 C-141.16671631 154.45553711 -142.05608887 153.92669922 -142.97241211 153.38183594 C-145 152 -145 152 -146 150 C-146.5554766 146.01908437 -146.07994745 144.15162448 -144.1875 140.5625 C-137.57301133 132.23926842 -127.95976203 129.09284985 -118.12890625 126.23828125 C-103.16171232 121.85772508 -88.44925607 115.80157367 -80 102 C-78.41804859 98.87027075 -76.95444565 95.69063609 -75.5 92.5 C-69.45283048 79.23424664 -62.5274414 70.36351194 -48.7109375 64.63671875 C-43.89204954 62.87994582 -39.02110398 61.31748209 -34.125 59.79296875 C-21.93859746 55.95679206 -10.99874455 51.3878861 -4.71875 39.59375 C-2.17500176 33.99750387 -0.86639012 29.3334939 -0.68359375 23.14453125 C-0.6524221 22.15207649 -0.6524221 22.15207649 -0.62062073 21.13957214 C-0.55535273 19.03065148 -0.49634656 16.92160865 -0.4375 14.8125 C-0.39429311 13.38084685 -0.35067812 11.94920596 -0.30664062 10.51757812 C-0.19969494 7.01184846 -0.09836359 3.50598214 0 0 Z " fill="#BB8AD9" transform="translate(202,101)"/>
<path d="M0 0 C1.25908676 0.00222061 2.51817352 0.00444122 3.81541443 0.00672913 C4.50806396 0.0065831 5.2007135 0.00643707 5.91435242 0.00628662 C8.21400537 0.00698577 10.51357828 0.01477823 12.81321716 0.02259827 C14.40362504 0.02446244 15.99403349 0.02588635 17.58444214 0.02688599 C21.77827021 0.03071123 25.97206386 0.04054156 30.1658783 0.05158997 C34.44220006 0.06180395 38.71852736 0.06638358 42.99485779 0.07142639 C51.39135799 0.08216383 59.78783017 0.09924032 68.18431091 0.12025452 C68.41286261 6.98809185 68.5702554 13.85494695 68.67869568 20.72572327 C68.72390515 23.06170797 68.78528696 25.39743871 68.86326599 27.7325592 C68.97269808 31.09419846 69.02352964 34.45246937 69.06321716 37.81556702 C69.10966873 38.85641449 69.1561203 39.89726196 69.20397949 40.96965027 C69.20889954 48.0666951 69.20889954 48.0666951 66.32199097 51.03523254 C64.0084219 52.60138922 61.68817335 53.88516778 59.18431091 55.12025452 C58.18520691 55.72611389 57.18610291 56.33197327 56.15672302 56.95619202 C55.26735046 57.46408264 54.37797791 57.97197327 53.46165466 58.49525452 C52.43975037 59.08145569 51.41784607 59.66765686 50.36497498 60.2716217 C49.29473083 60.88167053 48.22448669 61.49171936 47.12181091 62.12025452 C44.82329056 63.43736934 42.52509148 64.75503043 40.22727966 66.07337952 C39.35542526 66.57300201 39.35542526 66.57300201 38.46595764 67.0827179 C31.25669217 71.21793691 24.08969606 75.42579128 16.92625427 79.63978577 C3.0143518 87.79109353 3.0143518 87.79109353 -1.81568909 87.12025452 C-4.34754789 84.58839571 -4.0551828 83.00488999 -4.07563782 79.55177307 C-4.07001831 78.77507263 -4.0643988 77.99837219 -4.05860901 77.19813538 C-4.06050735 76.38014969 -4.0624057 75.562164 -4.06436157 74.71939087 C-4.06807499 72.0078634 -4.05735799 69.29660205 -4.04615784 66.58509827 C-4.04496634 64.70705192 -4.04451281 62.82900496 -4.04476929 60.95095825 C-4.04320349 57.01247942 -4.03490589 53.07409137 -4.02149963 49.13563538 C-4.00449799 44.07555925 -4.00068556 39.01558287 -4.00144482 33.95548153 C-4.00117351 30.07715901 -3.99569892 26.19885851 -3.98844337 22.32054329 C-3.98525111 20.45413441 -3.98328801 18.58772303 -3.98254967 16.72131157 C-3.98039264 14.11849043 -3.97166267 11.51577725 -3.96095276 8.91297913 C-3.96140594 8.13425446 -3.96185913 7.35552979 -3.96232605 6.5532074 C-3.92371036 0.1675767 -3.92371036 0.1675767 0 0 Z " fill="#E7C2E4" transform="translate(157.81568908691406,217.87974548339844)"/>
<path d="M0 0 C0.98790024 -0.01591187 1.97580048 -0.03182373 2.99363708 -0.04821777 C4.05929398 -0.04841919 5.12495087 -0.04862061 6.22290039 -0.04882812 C7.3189711 -0.05644165 8.41504181 -0.06405518 9.54432678 -0.07189941 C11.86351237 -0.08271017 14.18274669 -0.08554958 16.50195312 -0.08105469 C20.05364055 -0.08008275 23.6031659 -0.12168808 27.15454102 -0.16601562 C29.40648963 -0.1712227 31.65844576 -0.17391082 33.91040039 -0.17382812 C35.50584938 -0.19842102 35.50584938 -0.19842102 37.13352966 -0.22351074 C44.48795484 -0.15445686 44.48795484 -0.15445686 47.77197266 2.76953125 C49.56863156 6.26810148 50.26010675 8.93015232 50.29418945 12.81201172 C50.303797 13.69658051 50.31340454 14.58114929 50.32330322 15.49252319 C50.3275531 16.44567413 50.33180298 17.39882507 50.33618164 18.38085938 C50.34188171 19.36357819 50.34758179 20.346297 50.35345459 21.35879517 C50.36290183 23.43840458 50.36943748 25.51802895 50.37329102 27.59765625 C50.3829978 30.77565668 50.4140245 33.9530107 50.44555664 37.13085938 C50.45208675 39.15168887 50.45733719 41.17252299 50.46118164 43.19335938 C50.47352844 44.14246185 50.48587524 45.09156433 50.49859619 46.06942749 C50.47668025 52.5751526 49.49111938 55.78941701 45.09179688 60.69702148 C40.72206015 63.24155751 36.76743814 63.01198578 31.79321289 62.98632812 C30.7934996 62.9925267 29.79378632 62.99872528 28.76377869 63.00511169 C26.65323865 63.01220354 24.54264259 63.00904698 22.43212891 62.99633789 C19.20964139 62.98248243 15.99006422 63.01654135 12.76782227 63.0546875 C10.7137851 63.05563885 8.65974431 63.05377904 6.60571289 63.04882812 C5.64617203 63.06208633 4.68663116 63.07534454 3.69801331 63.08900452 C-0.60296518 63.02939942 -3.88476627 62.90396227 -7.39648438 60.25561523 C-12.17717217 54.76814723 -12.18401338 49.30718669 -12.20288086 42.36523438 C-12.20953766 41.50485565 -12.21619446 40.64447693 -12.22305298 39.75802612 C-12.23314238 37.94433722 -12.23787115 36.13061147 -12.23754883 34.31689453 C-12.24191907 31.56024255 -12.2782688 28.80519706 -12.31616211 26.04882812 C-12.32203188 24.2793023 -12.3260002 22.50976894 -12.32788086 20.74023438 C-12.34225189 19.92539581 -12.35662292 19.11055725 -12.37142944 18.27102661 C-12.32010586 11.75797108 -10.56114576 6.85984846 -6.53620911 1.72085571 C-4.28651794 -0.03242974 -2.83516715 0.02745177 0 0 Z " fill="#3D2960" transform="translate(119.866943359375,65.580078125)"/>
<path d="M0 0 C12.54 0 25.08 0 38 0 C40.79778145 2.79778145 40.26569008 4.54573197 40.29052734 8.46582031 C40.29724457 9.12947098 40.30396179 9.79312164 40.31088257 10.47688293 C40.32992467 12.67737259 40.33379041 14.87755801 40.3359375 17.078125 C40.34236328 18.60789109 40.34909148 20.13765594 40.35610962 21.66741943 C40.36809941 24.87873176 40.37178892 28.0899364 40.37060547 31.30126953 C40.37040267 35.40826201 40.39765588 39.51455944 40.43214989 43.62138748 C40.45443949 46.78364198 40.45844232 49.94573011 40.45738602 53.10805511 C40.45974076 54.62147151 40.46855727 56.13489258 40.48405075 57.64823151 C40.50374524 59.7715082 40.49786013 61.89329867 40.48583984 64.01660156 C40.48868988 65.22302307 40.49153992 66.42944458 40.49447632 67.67242432 C39.8968486 71.69415681 38.51492479 73.8408901 36 77 C33.28613281 78.97875977 33.28613281 78.97875977 30.203125 80.69140625 C29.0790625 81.32626953 27.955 81.96113281 26.796875 82.61523438 C25.61487108 83.26484675 24.43257742 83.91393222 23.25 84.5625 C22.08258014 85.21414728 20.91590613 85.86713263 19.75 86.52148438 C17.51082787 87.77782353 15.26937354 89.03010587 13.02539062 90.27783203 C10.39746127 91.77374985 7.84119904 93.33240821 5.296875 94.96484375 C2 97 2 97 0 97 C0 64.99 0 32.98 0 0 Z " fill="#DEBCE3" transform="translate(238,163)"/>
<path d="M0 0 C0.72957413 -0.00287018 1.45914825 -0.00574036 2.21083069 -0.00869751 C3.74627463 -0.01072919 5.28174498 -0.0052623 6.81713867 0.00732422 C9.15017414 0.02336885 11.48147147 0.00745846 13.81445312 -0.01171875 C15.31380586 -0.0097357 16.81315753 -0.00589076 18.3125 0 C19.34563576 -0.00910904 19.34563576 -0.00910904 20.39964294 -0.0184021 C26.40352128 0.06751595 31.02155199 1.48695222 35.59765625 5.4609375 C37.98213202 8.3039663 38.3527568 9.95412508 38.3996582 13.58520508 C38.41891106 14.88214043 38.41891106 14.88214043 38.43855286 16.20527649 C38.44593979 17.14171494 38.45332672 18.07815338 38.4609375 19.04296875 C38.46900925 20.00490646 38.47708099 20.96684418 38.48539734 21.95793152 C38.49924235 23.99643143 38.50996263 26.03495456 38.51782227 28.07348633 C38.53503014 31.18811086 38.57891202 34.30167268 38.62304688 37.41601562 C38.63317416 39.39582552 38.64169015 41.37564445 38.6484375 43.35546875 C38.66594559 44.2858345 38.68345367 45.21620026 38.70149231 46.17475891 C38.68754736 50.34113103 38.60262564 52.7562438 36.44604492 56.40112305 C31.69532417 60.66879039 27.73676875 60.70620451 21.4765625 60.69921875 C20.62843491 60.70350388 19.78030731 60.707789 18.90647888 60.71220398 C17.11531465 60.71793885 15.32412713 60.71845375 13.53295898 60.71411133 C10.79825959 60.71095263 8.06464374 60.73441595 5.33007812 60.75976562 C3.58724094 60.7620389 1.84440086 60.76274199 0.1015625 60.76171875 C-1.12052162 60.77553337 -1.12052162 60.77553337 -2.36729431 60.78962708 C-6.93607997 60.75254925 -10.22885929 60.58455812 -13.77734375 57.3984375 C-16.985693 51.86773766 -17.21989121 46.99987648 -17.17578125 40.703125 C-17.17865143 39.79265411 -17.18152161 38.88218323 -17.18447876 37.94412231 C-17.1865108 36.02963637 -17.18104145 34.11512926 -17.16845703 32.20068359 C-17.1523537 29.27524432 -17.16835409 26.35117868 -17.1875 23.42578125 C-17.18551814 21.5598928 -17.18167566 19.6940052 -17.17578125 17.828125 C-17.18185394 16.95719208 -17.18792664 16.08625916 -17.19418335 15.18893433 C-17.13991988 10.49563502 -17.0177155 7.07325339 -13.77734375 3.3984375 C-9.28302789 0.42443111 -5.2613294 -0.0462526 0 0 Z " fill="#3D2861" transform="translate(58.77734375,114.6015625)"/>
<path d="M0 0 C12.21 0 24.42 0 37 0 C37 11.88 37 23.76 37 36 C24.79 36 12.58 36 0 36 C0 24.12 0 12.24 0 0 Z " fill="#DDBEE4" transform="translate(121,79)"/>
<path d="M0 0 C1 1.66666667 2 3.33333333 3 5 C6.05270463 5.15811388 6.05270463 5.15811388 9 4 C9 4.99 9 5.98 9 7 C9.62648438 6.62746094 10.25296875 6.25492187 10.8984375 5.87109375 C11.71570312 5.39800781 12.53296875 4.92492187 13.375 4.4375 C14.18710937 3.96183594 14.99921875 3.48617187 15.8359375 2.99609375 C16.55007812 2.66738281 17.26421875 2.33867188 18 2 C18.66 2.33 19.32 2.66 20 3 C19.25838623 3.43344727 18.51677246 3.86689453 17.75268555 4.31347656 C14.99240048 5.93205945 12.23662118 7.55799058 9.48364258 9.18896484 C8.29332828 9.89211911 7.10128444 10.59235439 5.9074707 11.28955078 C4.18765091 12.29463096 2.47459602 13.31125838 0.76171875 14.328125 C-0.26993408 14.9355957 -1.30158691 15.54306641 -2.36450195 16.16894531 C-6.00306647 18.69689658 -7.60600706 20.81802119 -9 25 C-9.09644607 26.73495159 -9.13493981 28.47337701 -9.14044189 30.21099854 C-9.14615204 31.29043228 -9.15186218 32.36986603 -9.15774536 33.48200989 C-9.15886322 34.66647202 -9.15998108 35.85093414 -9.16113281 37.07128906 C-9.16609772 38.3186937 -9.17106262 39.56609833 -9.17617798 40.8513031 C-9.18828909 44.27505564 -9.19574564 47.69874708 -9.20018864 51.12251377 C-9.20312121 53.26285884 -9.20722642 55.40319857 -9.21169281 57.54354095 C-9.225367 64.24390744 -9.23503348 70.94426169 -9.2388947 77.64464116 C-9.24337248 85.37202739 -9.26090754 93.09923647 -9.2898953 100.82656884 C-9.311537 106.803763 -9.32160034 112.78090742 -9.32293582 118.75814033 C-9.32398227 122.32593329 -9.32985542 125.89355972 -9.34775543 129.46131134 C-9.36735142 133.44464281 -9.3629372 137.42775435 -9.35644531 141.41113281 C-9.37026749 143.17568062 -9.37026749 143.17568062 -9.3843689 144.97587585 C-9.34913166 151.87705392 -8.97926948 157.22300263 -4.5703125 162.8125 C-2.19528667 164.76387257 -0.45013404 165.94641261 2.625 166.3125 C5.83734956 164.53725419 6.44762055 162.43136047 7.88671875 159.14453125 C9.6542838 155.73964279 12.17738912 153.56600989 15 151 C15.66 151.33 16.32 151.66 17 152 C15.35 153.98 13.7 155.96 12 158 C14.47266765 157.65555119 14.47266765 157.65555119 17 157 C17.33 156.34 17.66 155.68 18 155 C19.66666667 155 21.33333333 155 23 155 C23 155.99 23 156.98 23 158 C23.68707031 157.62746094 24.37414062 157.25492188 25.08203125 156.87109375 C25.98308594 156.39800781 26.88414063 155.92492187 27.8125 155.4375 C28.70582031 154.96183594 29.59914062 154.48617187 30.51953125 153.99609375 C33 153 33 153 36 154 C34.89591797 154.56267578 34.89591797 154.56267578 33.76953125 155.13671875 C28.47699514 157.91232884 23.905501 160.36221756 20 165 C19.401875 165.639375 18.80375 166.27875 18.1875 166.9375 C16.54174904 169.79590956 16.5862176 171.75870456 17 175 C19.21350684 178.3853634 23.53644744 180.1048486 27 182 C25.02 182.99 25.02 182.99 23 184 C23.66 184.33 24.32 184.66 25 185 C25 186.32 25 187.64 25 189 C24.01 189 23.02 189 22 189 C22 190.65 22 192.3 22 194 C12.15956206 189.4152505 3.12085782 183.85679449 -6 178 C-5.360625 177.87625 -4.72125 177.7525 -4.0625 177.625 C-3.381875 177.41875 -2.70125 177.2125 -2 177 C-1.67 176.34 -1.34 175.68 -1 175 C-1.99 174.67 -2.98 174.34 -4 174 C-3.79375 173.38125 -3.5875 172.7625 -3.375 172.125 C-3.25125 171.42375 -3.1275 170.7225 -3 170 C-3.66 169.34 -4.32 168.68 -5 168 C-5.99 169.98 -5.99 169.98 -7 172 C-7.99 172 -8.98 172 -10 172 C-11.36118461 169.75804887 -12.06138028 168.52173238 -11.75 165.875 C-11 164 -11 164 -9 162 C-9.33 161.01 -9.66 160.02 -10 159 C-11.02806713 155.9157986 -11.12329974 153.82102263 -11.12025452 150.59004211 C-11.12231651 148.90523239 -11.12231651 148.90523239 -11.12442017 147.18638611 C-11.12082489 145.95352371 -11.11722961 144.72066132 -11.11352539 143.45043945 C-11.11367142 142.15277649 -11.11381744 140.85511353 -11.1139679 139.51812744 C-11.11425514 135.95848745 -11.10837019 132.39888107 -11.10139394 128.8392489 C-11.09514826 125.11965622 -11.09455564 121.40006281 -11.09336853 117.6804657 C-11.0902588 110.63632227 -11.08205023 103.59219434 -11.07201904 96.54805773 C-11.06084679 88.52879585 -11.05534465 80.50953322 -11.05032361 72.49026549 C-11.03986733 55.99350125 -11.02227481 39.4967526 -11 23 C-12.32 23 -13.64 23 -15 23 C-15.66 23 -16.32 23 -17 23 C-17 22.34 -17 21.68 -17 21 C-17.99 21.33 -18.98 21.66 -20 22 C-19.42655063 19.13275314 -19.1385485 18.1385485 -17 16 C-17.66 15.67 -18.32 15.34 -19 15 C-19.33 15.99 -19.66 16.98 -20 18 C-20.33 17.01 -20.66 16.02 -21 15 C-17.459909 8.05597534 -8.11208538 0 0 0 Z " fill="#3E2A62" transform="translate(40,76)"/>
<path d="M0 0 C9.57 0 19.14 0 29 0 C29 11.22 29 22.44 29 34 C19.43 34 9.86 34 0 34 C0 22.78 0 11.56 0 0 Z " fill="#BA88D9" transform="translate(55,128)"/>
<path d="M0 0 C1 1.66666667 2 3.33333333 3 5 C6.05270463 5.15811388 6.05270463 5.15811388 9 4 C9 4.99 9 5.98 9 7 C9.62648438 6.62746094 10.25296875 6.25492187 10.8984375 5.87109375 C11.71570312 5.39800781 12.53296875 4.92492187 13.375 4.4375 C14.18710937 3.96183594 14.99921875 3.48617187 15.8359375 2.99609375 C16.55007812 2.66738281 17.26421875 2.33867188 18 2 C18.66 2.33 19.32 2.66 20 3 C19.25838623 3.43344727 18.51677246 3.86689453 17.75268555 4.31347656 C14.99240048 5.93205945 12.23662118 7.55799058 9.48364258 9.18896484 C8.29332828 9.89211911 7.10128444 10.59235439 5.9074707 11.28955078 C4.18765091 12.29463096 2.47459602 13.31125838 0.76171875 14.328125 C-0.26993408 14.9355957 -1.30158691 15.54306641 -2.36450195 16.16894531 C-6.00306647 18.69689658 -7.60600706 20.81802119 -9 25 C-9.10196647 26.77586712 -9.1463033 28.555278 -9.15821838 30.33403015 C-9.1680072 31.44040833 -9.17779602 32.5467865 -9.18788147 33.68669128 C-9.19363693 34.9008522 -9.1993924 36.11501312 -9.20532227 37.3659668 C-9.22017166 39.28320053 -9.22017166 39.28320053 -9.23532104 41.23916626 C-9.2623642 44.74505513 -9.28337694 48.25095745 -9.30332303 51.75689292 C-9.32518621 55.42045784 -9.35257328 59.08398133 -9.37937927 62.74751282 C-9.42930166 69.68537823 -9.47424217 76.62326665 -9.51740164 83.56117707 C-9.56677789 91.45955174 -9.62169458 99.35788482 -9.67708123 107.25621927 C-9.79089431 123.50410785 -9.89773482 139.75203455 -10 156 C-10.33 156 -10.66 156 -11 156 C-11 112.11 -11 68.22 -11 23 C-12.32 23 -13.64 23 -15 23 C-15.66 23 -16.32 23 -17 23 C-17 22.34 -17 21.68 -17 21 C-17.99 21.33 -18.98 21.66 -20 22 C-19.42655063 19.13275314 -19.1385485 18.1385485 -17 16 C-17.66 15.67 -18.32 15.34 -19 15 C-19.33 15.99 -19.66 16.98 -20 18 C-20.33 17.01 -20.66 16.02 -21 15 C-17.459909 8.05597534 -8.11208538 0 0 0 Z " fill="#2E1E4F" transform="translate(40,76)"/>
<path d="M0 0 C0.495 1.485 0.495 1.485 1 3 C-0.21484375 4.9375 -0.21484375 4.9375 -1.9375 7 C-4.59953768 10.04655909 -4.59953768 10.04655909 -5 14 C-4.236875 14.12375 -3.47375 14.2475 -2.6875 14.375 C0 15 0 15 3 17 C-6.58247603 25.20147213 -18.73581226 29.48510664 -31 32 C-31.99 31.67 -32.98 31.34 -34 31 C-32.68 30.34 -31.36 29.68 -30 29 C-30.66 28.34 -31.32 27.68 -32 27 C-31.01 26.67 -30.02 26.34 -29 26 C-29.495 23.525 -29.495 23.525 -30 21 C-36.88292907 23.08467733 -43.13935783 25.32329857 -49.2578125 29.14453125 C-49.83273438 29.42683594 -50.40765625 29.70914063 -51 30 C-51.66 29.67 -52.32 29.34 -53 29 C-44.25377342 23.13559462 -35.03834248 19.89818394 -25.05078125 16.75390625 C-13.74582677 13.16589708 -6.66997645 10.00496468 0 0 Z " fill="#38235A" transform="translate(188,133)"/>
<path d="M0 0 C9.57 0 19.14 0 29 0 C29 10.89 29 21.78 29 33 C28.67 33 28.34 33 28 33 C28 22.77 28 12.54 28 2 C19.42 2 10.84 2 2 2 C2 11.9 2 21.8 2 32 C10.25 32 18.5 32 27 32 C27 32.33 27 32.66 27 33 C18.09 33 9.18 33 0 33 C0 22.11 0 11.22 0 0 Z " fill="#CB9EE9" transform="translate(55,128)"/>
<path d="M0 0 C0 0.66 0 1.32 0 2 C0.66 2 1.32 2 2 2 C2 2.66 2 3.32 2 4 C2.66 4.33 3.32 4.66 4 5 C3.690625 5.556875 3.38125 6.11375 3.0625 6.6875 C1.87636886 8.95516328 1.87636886 8.95516328 1.7109375 11.46875 C1 14 1 14 -0.99609375 15.58203125 C-2.20458984 16.19111328 -2.20458984 16.19111328 -3.4375 16.8125 C-4.64212891 17.44091797 -4.64212891 17.44091797 -5.87109375 18.08203125 C-8 19 -8 19 -10 19 C-10 18.34 -10 17.68 -10 17 C-11.32 16.34 -12.64 15.68 -14 15 C-13.01 14.1028125 -13.01 14.1028125 -12 13.1875 C-9.6626154 11.12498166 -9.6626154 11.12498166 -10 8 C-10.66 7.34 -11.32 6.68 -12 6 C-10.37829621 4.99466333 -8.75252763 3.99588093 -7.125 3 C-5.76761719 2.1646875 -5.76761719 2.1646875 -4.3828125 1.3125 C-2 0 -2 0 0 0 Z " fill="#432E64" transform="translate(117,30)"/>
<path d="M0 0 C-0.515625 0.4125 -1.03125 0.825 -1.5625 1.25 C-2.036875 1.8275 -2.51125 2.405 -3 3 C-2.77242269 5.16299211 -2.77242269 5.16299211 -2 7 C-1.34 6.01 -0.68 5.02 0 4 C0.66 3.67 1.32 3.34 2 3 C2 3.99 2 4.98 2 6 C4.98526012 6.88765257 6.47973784 7.22479412 9.38671875 5.96875 C10.14597656 5.4840625 10.90523437 4.999375 11.6875 4.5 C14.01171875 3.03125 14.01171875 3.03125 16 2 C16.66 2.33 17.32 2.66 18 3 C13.87574393 5.49834743 9.74170165 7.97973411 5.60009766 10.44921875 C3.72113834 11.56989007 1.84335545 12.69253464 -0.03369141 13.81640625 C-3.28826757 15.76119599 -6.54967409 17.69408884 -9.8125 19.625 C-10.88048828 20.26518066 -11.94847656 20.90536133 -13.04882812 21.56494141 C-14.04978516 22.15452637 -15.05074219 22.74411133 -16.08203125 23.3515625 C-16.98155518 23.88604004 -17.8810791 24.42051758 -18.80786133 24.97119141 C-19.53126709 25.31069824 -20.25467285 25.65020508 -21 26 C-21.66 25.67 -22.32 25.34 -23 25 C-21.94039063 24.37351562 -20.88078125 23.74703125 -19.7890625 23.1015625 C-18.4009489 22.27619766 -17.01293314 21.45066826 -15.625 20.625 C-14.92632812 20.2125 -14.22765625 19.8 -13.5078125 19.375 C-12.8375 18.97539063 -12.1671875 18.57578125 -11.4765625 18.1640625 C-10.85861816 17.79748535 -10.24067383 17.4309082 -9.60400391 17.05322266 C-7.83209267 15.96740106 -7.83209267 15.96740106 -6 14 C-6 13.175 -6 12.35 -6 11.5 C-6 9 -6 9 -4 7 C-4.33 6.01 -4.66 5.02 -5 4 C-5.66 4 -6.32 4 -7 4 C-7 3.01 -7 2.02 -7 1 C-3.375 -1.125 -3.375 -1.125 0 0 Z " fill="#342253" transform="translate(124,28)"/>
<path d="M0 0 C1.06725815 0.00374634 2.1345163 0.00749268 3.2341156 0.01135254 C5.48424835 0.02476474 7.73433559 0.05253729 9.98413086 0.09375 C13.42540916 0.15610171 16.86485314 0.17570043 20.30664062 0.1875 C22.49611605 0.20584048 24.68557289 0.22659218 26.875 0.25 C28.41577965 0.26274963 28.41577965 0.26274963 29.98768616 0.27575684 C30.9489592 0.29497192 31.91023224 0.31418701 32.90063477 0.33398438 C34.16255394 0.35446838 34.16255394 0.35446838 35.44996643 0.37536621 C38.18916134 0.69315018 40.36332665 1.53387998 42.87109375 2.65625 C42.87109375 3.64625 42.87109375 4.63625 42.87109375 5.65625 C42.31381592 5.33224213 41.75653809 5.00823425 41.18237305 4.67440796 C38.56254005 3.52032683 36.74430186 3.39080665 33.890625 3.36572266 C32.90280029 3.35296295 31.91497559 3.34020325 30.8972168 3.32705688 C29.83672119 3.32483124 28.77622559 3.32260559 27.68359375 3.3203125 C26.58893799 3.3136557 25.49428223 3.3069989 24.36645508 3.30014038 C22.05323975 3.29002037 19.73999526 3.28532316 17.42675781 3.28564453 C13.88427871 3.2812663 10.34304035 3.24492427 6.80078125 3.20703125 C4.55338968 3.20116407 2.30599219 3.19719402 0.05859375 3.1953125 C-1.00190186 3.18094147 -2.06239746 3.16657043 -3.1550293 3.15176392 C-8.90166253 3.07091457 -8.90166253 3.07091457 -13.828125 5.68505859 C-14.47201172 6.66079834 -14.47201172 6.66079834 -15.12890625 7.65625 C-15.78890625 7.32625 -16.44890625 6.99625 -17.12890625 6.65625 C-12.01206324 0.08604794 -8.07481228 -0.19450211 0 0 Z " fill="#FBF6FA" transform="translate(126.12890625,63.34375)"/>
<path d="M0 0 C3 1 3 1 4 3 C5.97888961 3.72693904 7.97954558 4.39816251 10 5 C10 6.65 10 8.3 10 10 C4.87080814 12.10428384 0.4389165 12.21755666 -5 12 C-5 11.01 -5 10.02 -5 9 C-5.66 8.67 -6.32 8.34 -7 8 C-5.75325341 5.50650682 -4.30039894 4.53359929 -2 3 C-1.34 3 -0.68 3 0 3 C0 2.01 0 1.02 0 0 Z " fill="#422D66" transform="translate(260,247)"/>
<path d="M0 0 C2.995703 2.98624809 3.95468884 4.60460721 4.4430542 8.86616516 C4.43693887 10.39838708 4.40853564 11.93062169 4.36230469 13.4621582 C4.35313522 14.3016954 4.34396576 15.1412326 4.33451843 16.00621033 C4.29954165 18.77172897 4.23586601 21.53579457 4.171875 24.30078125 C4.1419667 26.22174957 4.11385412 28.14274662 4.08746338 30.06376648 C4.01327995 35.11282597 3.91472994 40.16112633 3.81109619 45.20965576 C3.70960236 50.36414322 3.63116275 55.51897585 3.55078125 60.67382812 C3.38974677 70.78302312 3.20296776 80.89156607 3 91 C2.67 91 2.34 91 2 91 C1.99191315 89.9815802 1.98382629 88.9631604 1.97549438 87.91387939 C1.89803741 78.32008768 1.81029919 68.72643785 1.71247292 59.13283157 C1.66250947 54.20056221 1.61617937 49.26831427 1.578125 44.3359375 C1.5412729 39.57665873 1.49491303 34.81755918 1.44193649 30.05843353 C1.42339217 28.24198294 1.40828434 26.42549393 1.39665604 24.6089859 C1.37979428 22.06628536 1.3507595 19.52399528 1.31884766 16.98144531 C1.31668747 16.22906586 1.31452728 15.4766864 1.31230164 14.70150757 C1.25141602 10.90847385 0.88117995 8.28994951 -1 5 C-0.625 2.25 -0.625 2.25 0 0 Z " fill="#473372" transform="translate(286,87)"/>
<path d="M0 0 C0.66 0.33 1.32 0.66 2 1 C0.35 2.98 -1.3 4.96 -3 7 C-0.52733235 6.65555119 -0.52733235 6.65555119 2 6 C2.33 5.34 2.66 4.68 3 4 C3.66 5.32 4.32 6.64 5 8 C4.34 8 3.68 8 3 8 C2.67 8.99 2.34 9.98 2 11 C1.01 10.67 0.02 10.34 -1 10 C-1.99 10.99 -2.98 11.98 -4 13 C-4.99 12.34 -5.98 11.68 -7 11 C-6.68232368 5.59950264 -3.80003673 3.47662935 0 0 Z M21 3 C19.2335343 4.0076952 17.46166177 5.00591714 15.6875 6 C14.20830078 6.8353125 14.20830078 6.8353125 12.69921875 7.6875 C10 9 10 9 7 9 C7 8.01 7 7.02 7 6 C6.34 6 5.68 6 5 6 C5.33 5.01 5.66 4.02 6 3 C6.66 3.33 7.32 3.66 8 4 C8 4.99 8 5.98 8 7 C8.68707031 6.62746094 9.37414062 6.25492188 10.08203125 5.87109375 C10.98308594 5.39800781 11.88414063 4.92492187 12.8125 4.4375 C13.70582031 3.96183594 14.59914063 3.48617187 15.51953125 2.99609375 C18 2 18 2 21 3 Z " fill="#382259" transform="translate(55,227)"/>
<path d="M0 0 C5.53846154 -0.36923077 5.53846154 -0.36923077 7.875 1.5 C8.24625 1.995 8.6175 2.49 9 3 C8.3125 5.4375 8.3125 5.4375 7 8 C4.6875 8.75 4.6875 8.75 2 9 C-0.77751219 9.52904994 -3.31136954 10.10378985 -6 11 C-5.1875 8.0625 -5.1875 8.0625 -4 5 C-3.01 4.67 -2.02 4.34 -1 4 C-0.26676204 1.98491642 -0.26676204 1.98491642 0 0 Z M-7 11 C-7 14 -7 14 -7 14 Z " fill="#432E67" transform="translate(115,193)"/>
<path d="M0 0 C0.66 0 1.32 0 2 0 C1.67 0.99 1.34 1.98 1 3 C0.84565842 5.94717173 0.7424397 8.87498865 0.68359375 11.82421875 C0.66281265 12.68561966 0.64203156 13.54702057 0.62062073 14.43452454 C0.55525091 17.18543544 0.49629868 19.93644156 0.4375 22.6875 C0.39430283 24.55274421 0.35068815 26.4179788 0.30664062 28.28320312 C0.19958237 32.85537124 0.09827946 37.4276351 0 42 C-0.66 42 -1.32 42 -2 42 C-2.04940929 36.50074579 -2.08572395 31.00162058 -2.10986328 25.50219727 C-2.11992567 23.63108062 -2.13357691 21.75997972 -2.15087891 19.88891602 C-2.17511684 17.20064409 -2.18648063 14.51257994 -2.1953125 11.82421875 C-2.20563507 10.98662521 -2.21595764 10.14903168 -2.22659302 9.28605652 C-2.22774341 3.34161512 -2.22774341 3.34161512 0 0 Z " fill="#E3DBE6" transform="translate(190,87)"/>
<path d="M0 0 C1 2 1 2 0.875 4.9375 C0.73363891 7.89575986 0.73363891 7.89575986 2.0625 9.625 C4.92232119 11.65455053 7.92318469 13.31645955 11 15 C9.02 15.99 9.02 15.99 7 17 C7.66 17.33 8.32 17.66 9 18 C9 19.32 9 20.64 9 22 C8.01 22 7.02 22 6 22 C6 23.65 6 25.3 6 27 C4.02 26.01 2.04 25.02 0 24 C0 23.67 0 23.34 0 23 C1.65 23 3.3 23 5 23 C5 22.01 5 21.02 5 20 C4.34 19.67 3.68 19.34 3 19 C3 17.68 3 16.36 3 15 C3.66 14.67 4.32 14.34 5 14 C2.36 12.35 -0.28 10.7 -3 9 C-2.01 6.03 -1.02 3.06 0 0 Z M0 12 C0.33 12.99 0.66 13.98 1 15 C0.34 14.67 -0.32 14.34 -1 14 C-0.67 13.34 -0.34 12.68 0 12 Z " fill="#3E2561" transform="translate(56,243)"/>
<path d="M0 0 C5.96652354 1.57013777 10.82909025 4.75029782 16 8 C16.33 7.01 16.66 6.02 17 5 C19.96854485 2.80585815 22.49179941 1.1694002 26 0 C26.66 0.66 27.32 1.32 28 2 C25.43383368 5.84924948 23.04120916 6.82972101 19 9 C19 9.66 19 10.32 19 11 C14.25652774 9.62309544 10.27474838 7.56160559 6.125 4.9375 C5.53203125 4.57333984 4.9390625 4.20917969 4.328125 3.83398438 C2.86464287 2.9218371 1.4292745 1.96486632 0 1 C0 0.67 0 0.34 0 0 Z " fill="#342351" transform="translate(194,46)"/>
<path d="M0 0 C0.4021875 0.87785156 0.4021875 0.87785156 0.8125 1.7734375 C2.00994944 4.0186552 3.3216708 5.72009636 5 7.625 C5.515625 8.21539062 6.03125 8.80578125 6.5625 9.4140625 C7.67451212 10.64090196 8.82916568 11.82916568 10 13 C9.21625 13.0825 8.4325 13.165 7.625 13.25 C4.85250896 13.72806339 4.85250896 13.72806339 3.6875 16.0625 C3.460625 16.701875 3.23375 17.34125 3 18 C2.01 18 1.02 18 0 18 C-1.36118461 15.75804887 -2.06138028 14.52173238 -1.75 11.875 C-1 10 -1 10 1 8 C0.67 7.01 0.34 6.02 0 5 C-0.03874921 3.33378384 -0.0450286 1.66605828 0 0 Z " fill="#372558" transform="translate(30,230)"/>
<path d="M0 0 C0.66 0 1.32 0 2 0 C3 3 3 3 2.00390625 5.04296875 C1.52824219 5.75066406 1.05257812 6.45835937 0.5625 7.1875 C0.08941406 7.90292969 -0.38367187 8.61835938 -0.87109375 9.35546875 C-1.42990234 10.16951172 -1.42990234 10.16951172 -2 11 C-4.875 10.8125 -4.875 10.8125 -8 10 C-9.375 7.4375 -9.375 7.4375 -10 5 C-7 4 -7 4 -5 4 C-4.67 3.01 -4.34 2.02 -4 1 C-4 1.66 -4 2.32 -4 3 C-2.68 2.67 -1.36 2.34 0 2 C0 1.34 0 0.68 0 0 Z " fill="#F8F2F0" transform="translate(46,232)"/>
<path d="M0 0 C5.00764974 0.54452114 8.62084174 2.90879307 12.8125 5.5 C13.50537109 5.91636719 14.19824219 6.33273438 14.91210938 6.76171875 C16.62920572 7.80720204 18.31759538 8.89955924 20 10 C20 10.33 20 10.66 20 11 C16.7 11 13.4 11 10 11 C9.814375 10.05125 9.62875 9.1025 9.4375 8.125 C8.963125 7.09375 8.48875 6.0625 8 5 C4.48809191 3.77030122 4.48809191 3.77030122 1 3 C0.67 2.01 0.34 1.02 0 0 Z " fill="#F4EDF2" transform="translate(244,77)"/>
<path d="M0 0 C0 3.29052817 -0.14241486 4.33476915 -2 7 C-3.72274077 8.12869223 -5.49091333 9.09065327 -7.3125 10.05078125 C-9.20596038 11.11585271 -10.59431882 12.34625743 -12 14 C-12.33 13.01 -12.66 12.02 -13 11 C-13.66 10.67 -14.32 10.34 -15 10 C-14.00097656 9.36191406 -13.00195312 8.72382813 -11.97265625 8.06640625 C-10.66922829 7.23183727 -9.36584519 6.39719823 -8.0625 5.5625 C-7.40314453 5.14162109 -6.74378906 4.72074219 -6.06445312 4.28710938 C-2.86871187 2.35604912 -2.86871187 2.35604912 0 0 Z " fill="#3B245B" transform="translate(276,237)"/>
<path d="M0 0 C0.66 0.33 1.32 0.66 2 1 C0.02 3.31 -1.96 5.62 -4 8 C-3.34 8.33 -2.68 8.66 -2 9 C-2 9.66 -2 10.32 -2 11 C-4 12.625 -4 12.625 -6 14 C-6.66 13.67 -7.32 13.34 -8 13 C-8 13.66 -8 14.32 -8 15 C-9.98 15.99 -9.98 15.99 -12 17 C-10.67191342 11.85557267 -8.5159936 8.95271122 -4.875 5.125 C-4.40707031 4.62742188 -3.93914062 4.12984375 -3.45703125 3.6171875 C-2.31322699 2.40335441 -1.15778377 1.20050642 0 0 Z " fill="#2F1D4C" transform="translate(133,163)"/>
<path d="M0 0 C0.83712183 2.89579242 1.10137258 5.39259154 1.02172852 8.40136719 C1.00163223 9.2619574 0.98153595 10.12254761 0.96083069 11.00921631 C0.93379562 11.92914368 0.90676056 12.84907104 0.87890625 13.796875 C0.85529526 14.74564514 0.83168427 15.69441528 0.80735779 16.67193604 C0.73087006 19.69811521 0.64678153 22.72402884 0.5625 25.75 C0.50926442 27.80337248 0.45652412 29.85675787 0.40429688 31.91015625 C0.27527502 36.94027188 0.13943665 41.97016273 0 47 C-0.33 47 -0.66 47 -1 47 C-1.78483789 41.44350428 -2.15949828 36.05716533 -2.16796875 30.44921875 C-2.17129715 29.66859573 -2.17462555 28.88797272 -2.17805481 28.08369446 C-2.18307907 26.44927555 -2.18546454 24.81484654 -2.18530273 23.18041992 C-2.18750947 20.67675264 -2.20576699 18.17351262 -2.22460938 15.66992188 C-2.2275402 14.07552233 -2.22952707 12.48112071 -2.23046875 10.88671875 C-2.23765427 10.13984299 -2.24483978 9.39296722 -2.25224304 8.62345886 C-2.23560103 4.86571425 -2.13857879 3.20786819 0 0 Z " fill="#FEF9FE" transform="translate(108,73)"/>
<path d="M0 0 C0 3 0 3 -1.36328125 4.6484375 C-7.66253162 10.22813422 -14.72304486 14.18216406 -23 16 C-23 15.34 -23 14.68 -23 14 C-21.35 13.67 -19.7 13.34 -18 13 C-18 12.34 -18 11.68 -18 11 C-16.9275 10.731875 -15.855 10.46375 -14.75 10.1875 C-11.24821424 9.07860118 -9.68620212 8.35042685 -7 6 C-5.125 4.40625 -5.125 4.40625 -3.25 2.8125 C-2.1656268 1.87620297 -1.08194399 0.93910307 0 0 Z " fill="#FAF3FB" transform="translate(108,199)"/>
<path d="M0 0 C2.9719385 1.12451727 5.33440687 2.22293791 8 4 C8 4.66 8 5.32 8 6 C6.1875 6.625 6.1875 6.625 4 7 C3.01 6.34 2.02 5.68 1 5 C1 4.34 1 3.68 1 3 C0.67 2.01 0.34 1.02 0 0 Z M0 7 C1.32 7.33 2.64 7.66 4 8 C3.34 8 2.68 8 2 8 C2.33 9.32 2.66 10.64 3 12 C0.69 11.67 -1.62 11.34 -4 11 C-2.68 10.67 -1.36 10.34 0 10 C0 9.01 0 8.02 0 7 Z " fill="#453069" transform="translate(71,263)"/>
<path d="M0 0 C4.61513112 1.31860889 8.09897612 3.21355437 12 6 C9 7 9 7 6 6 C6 5.34 6 4.68 6 4 C4.02 4.66 2.04 5.32 0 6 C-1 3 -1 3 0 0 Z M-3 4 C-2.34 4 -1.68 4 -1 4 C-1 4.66 -1 5.32 -1 6 C-1.66 6 -2.32 6 -3 6 C-3 5.34 -3 4.68 -3 4 Z " fill="#3A205D" transform="translate(116,288)"/>
<path d="M0 0 C2.62024465 2.09619572 3.04488134 4.31787846 3.875 7.5 C2.885 7.83 1.895 8.16 0.875 8.5 C-1.45833333 6.16666667 -3.79166667 3.83333333 -6.125 1.5 C-3.81182685 0.01296012 -2.73239906 -0.64291743 0 0 Z " fill="#46316A" transform="translate(92.125,280.5)"/>
<path d="M0 0 C0.99 0.33 1.98 0.66 3 1 C2.54109375 1.49628906 2.0821875 1.99257812 1.609375 2.50390625 C-2.25719293 6.78474931 -5.33517615 10.88353821 -8 16 C-8.33 15.01 -8.66 14.02 -9 13 C-7.67653494 10.9934562 -6.34270821 8.99371825 -5 7 C-5 5.68 -5 4.36 -5 3 C-3.35 2.67 -1.7 2.34 0 2 C0 1.34 0 0.68 0 0 Z " fill="#34195A" transform="translate(138,172)"/>
<path d="M0 0 C0.99 0 1.98 0 3 0 C3 0.66 3 1.32 3 2 C4.32 1.67 5.64 1.34 7 1 C3.92000054 4.67230705 1.7517398 5.56802365 -3 6 C-2.42655063 3.13275314 -2.1385485 2.1385485 0 0 Z " fill="#382959" transform="translate(228,275)"/>
<path d="M0 0 C1 2 1 2 0.875 4.9375 C0.70090451 7.9527744 0.70090451 7.9527744 2.3125 9.6875 C3.1478125 10.3371875 3.1478125 10.3371875 4 11 C5 12 6 13 7 14 C2.56909529 12.79157144 0.01887244 11.48331435 -3 8 C-2.01 5.36 -1.02 2.72 0 0 Z M0 12 C0.33 12.99 0.66 13.98 1 15 C0.34 14.67 -0.32 14.34 -1 14 C-0.67 13.34 -0.34 12.68 0 12 Z " fill="#381A59" transform="translate(56,243)"/>
<path d="M0 0 C0.99 1.32 1.98 2.64 3 4 C1.35 5.65 -0.3 7.3 -2 9 C-2.99 8.34 -3.98 7.68 -5 7 C-5 5 -5 5 -2.5 2.375 C-1.675 1.59125 -0.85 0.8075 0 0 Z " fill="#483765" transform="translate(283,241)"/>
<path d="M0 0 C0.33 0.99 0.66 1.98 1 3 C-1.6875 4.1875 -1.6875 4.1875 -5 5 C-7.875 3.625 -7.875 3.625 -10 2 C-6.3558226 -0.4294516 -4.28758728 -0.16179575 0 0 Z " fill="#392959" transform="translate(152,315)"/>
<path d="M0 0 C2.57112831 1.76765071 3.07659703 3.45089059 4 6.375 C1.125 6.1875 1.125 6.1875 -2 5.375 C-3.375 2.8125 -3.375 2.8125 -4 0.375 C-2 -0.625 -2 -0.625 0 0 Z " fill="#F2E9EE" transform="translate(40,236.625)"/>
<path d="M0 0 C0.99 0.33 1.98 0.66 3 1 C3 1.66 3 2.32 3 3 C2.01 3.495 2.01 3.495 1 4 C0.01 5.485 0.01 5.485 -1 7 C-1 6.34 -1 5.68 -1 5 C-3.31 5.33 -5.62 5.66 -8 6 C-5.38485683 3.87961365 -2.80362384 1.86908256 0 0 Z " fill="#F7EEF2" transform="translate(43,88)"/>
<path d="M0 0 C1.20628008 2.33214148 2.1654738 4.49642139 3 7 C1.39253944 6.57476184 -0.21089836 6.13429874 -1.8125 5.6875 C-2.70582031 5.44386719 -3.59914062 5.20023438 -4.51953125 4.94921875 C-7 4 -7 4 -10 1 C-5.545 1.99 -5.545 1.99 -1 3 C-0.67 2.01 -0.34 1.02 0 0 Z " fill="#352456" transform="translate(197,41)"/>
<path d="M0 0 C1.32 0 2.64 0 4 0 C3.125 6.75 3.125 6.75 2 9 C1.34 9 0.68 9 0 9 C-1.125 6.75 -1.125 6.75 -2 4 C-1.125 1.6875 -1.125 1.6875 0 0 Z " fill="#45316A" transform="translate(122,26)"/>
<path d="M0 0 C-2 1.5 -2 1.5 -4 3 C-4.680625 3.5775 -5.36125 4.155 -6.0625 4.75 C-6.701875 5.1625 -7.34125 5.575 -8 6 C-8.99 5.67 -9.98 5.34 -11 5 C-7.6240914 0.45998499 -5.71800716 -1.77455395 0 0 Z " fill="#F5EDF5" transform="translate(65,221)"/>
<path d="M0 0 C0 3.19219704 -0.23605791 4.39608549 -2 7 C-4.625 8.25 -4.625 8.25 -7 9 C-7.33 8.01 -7.66 7.02 -8 6 C-5.36 4.02 -2.72 2.04 0 0 Z " fill="#311C52" transform="translate(276,237)"/>
<path d="M0 0 C0.33 0.66 0.66 1.32 1 2 C1.66 2.33 2.32 2.66 3 3 C3 3.66 3 4.32 3 5 C5.46326712 6.6446674 5.46326712 6.6446674 8 8 C7.01 8.495 7.01 8.495 6 9 C3.6171875 7.78515625 3.6171875 7.78515625 0.875 6.0625 C-0.03507813 5.49660156 -0.94515625 4.93070312 -1.8828125 4.34765625 C-2.58148438 3.90292969 -3.28015625 3.45820312 -4 3 C-3.01 2.34 -2.02 1.68 -1 1 C-0.67 0.67 -0.34 0.34 0 0 Z " fill="#2A1C47" transform="translate(248,73)"/>
<path d="M0 0 C1.9375 0.625 1.9375 0.625 4 2 C4.75 5.125 4.75 5.125 5 8 C4.67 7.34 4.34 6.68 4 6 C2.35 6.66 0.7 7.32 -1 8 C-1.33 7.01 -1.66 6.02 -2 5 C-0.68 4.34 0.64 3.68 2 3 C1.34 2.01 0.68 1.02 0 0 Z " fill="#2F1D48" transform="translate(164,67)"/>
<path d="M0 0 C0.99 0.33 1.98 0.66 3 1 C1.8125 3.4375 1.8125 3.4375 0 6 C-2.6875 6.8125 -2.6875 6.8125 -5 7 C-3.70700306 4.11562221 -2.34058637 2.12780579 0 0 Z " fill="#422E6A" transform="translate(57,227)"/>
<path d="M0 0 C0.33 0.66 0.66 1.32 1 2 C-3.14285714 8.42857143 -3.14285714 8.42857143 -6 11 C-6.66 10.67 -7.32 10.34 -8 10 C-5.36 6.7 -2.72 3.4 0 0 Z " fill="#C59BE5" transform="translate(122,203)"/>
<path d="M0 0 C0.98120464 3.05263664 0.98120464 4.94736336 0 8 C-1.32 8.33 -2.64 8.66 -4 9 C-3.38461538 3.46153846 -3.38461538 3.46153846 -1.4375 1.125 C-0.963125 0.75375 -0.48875 0.3825 0 0 Z " fill="#422E6A" transform="translate(185,140)"/>
<path d="M0 0 C1.32 0.66 2.64 1.32 4 2 C4 2.66 4 3.32 4 4 C2.02 4.66 0.04 5.32 -2 6 C-2.66 5.34 -3.32 4.68 -4 4 C-2.68 2.68 -1.36 1.36 0 0 Z " fill="#47346A" transform="translate(215,44)"/>
<path d="M0 0 C2.25 -0.3125 2.25 -0.3125 5 0 C7.3125 2.5 7.3125 2.5 9 5 C8.34 5.66 7.68 6.32 7 7 C4.66666667 4.66666667 2.33333333 2.33333333 0 0 Z " fill="#48395F" transform="translate(277,82)"/>
<path d="M0 0 C0.66 0.99 1.32 1.98 2 3 C1.071875 3.45375 0.14375 3.9075 -0.8125 4.375 C-4.03921389 5.9421633 -4.03921389 5.9421633 -7 8 C-7 6.68 -7 5.36 -7 4 C-4.69 2.68 -2.38 1.36 0 0 Z " fill="#F1EAEF" transform="translate(108,50)"/>
<path d="M0 0 C4.31392226 0.4793247 6.16569547 1.7457985 9 5 C5.625 4.75 5.625 4.75 2 4 C0.5625 1.9375 0.5625 1.9375 0 0 Z " fill="#382954" transform="translate(205,39)"/>
<path d="M0 0 C1.485 0.99 1.485 0.99 3 2 C4.9896995 2.39013716 6.99019869 2.73202649 9 3 C7.875 4.5625 7.875 4.5625 6 6 C2.8125 5.6875 2.8125 5.6875 0 5 C0 3.33333333 0 1.66666667 0 0 Z " fill="#2F1A4D" transform="translate(153,302)"/>
<path d="M0 0 C0 1.32 0 2.64 0 4 C0.66 4.33 1.32 4.66 2 5 C1.67 5.66 1.34 6.32 1 7 C0.01 6.67 -0.98 6.34 -2 6 C-2 5.34 -2 4.68 -2 4 C-2.99 3.67 -3.98 3.34 -5 3 C-2.25 0 -2.25 0 0 0 Z " fill="#432D69" transform="translate(204,282)"/>
<path d="M0 0 C4 4.625 4 4.625 4 8 C2.35 7.67 0.7 7.34 -1 7 C-0.67 4.69 -0.34 2.38 0 0 Z " fill="#4F3C68" transform="translate(286,87)"/>
<path d="M0 0 C0.66 0.66 1.32 1.32 2 2 C1.34 4.31 0.68 6.62 0 9 C-0.99 9 -1.98 9 -3 9 C-2.01 6.03 -1.02 3.06 0 0 Z " fill="#C098DF" transform="translate(201,131)"/>
<path d="M0 0 C4.40114397 0.50298788 6.71195019 2.08772731 10 5 C9.01 5.33 8.02 5.66 7 6 C7 5.34 7 4.68 7 4 C5.35 4 3.7 4 2 4 C2 3.34 2 2.68 2 2 C1.34 2 0.68 2 0 2 C0 1.34 0 0.68 0 0 Z " fill="#F4ECF4" transform="translate(201,52)"/>
<path d="M0 0 C1.32 0.33 2.64 0.66 4 1 C3.67 2.65 3.34 4.3 3 6 C0.525 5.01 0.525 5.01 -2 4 C-1.34 2.68 -0.68 1.36 0 0 Z " fill="#37245B" transform="translate(198,35)"/>
<path d="M0 0 C1.65 0 3.3 0 5 0 C5.33 0.99 5.66 1.98 6 3 C7.49985609 4.66710346 7.49985609 4.66710346 9 6 C5.59687262 4.94124926 2.98646769 3.99097846 0 2 C0 1.34 0 0.68 0 0 Z " fill="#2A1A47" transform="translate(228,65)"/>
<path d="M0 0 C0.66 0.33 1.32 0.66 2 1 C1.67 1.99 1.34 2.98 1 4 C-1.5625 5.1875 -1.5625 5.1875 -4 6 C-2.25 1.125 -2.25 1.125 0 0 Z " fill="#413365" transform="translate(194,297)"/>
<path d="M0 0 C0.33 0.66 0.66 1.32 1 2 C1.99 2.33 2.98 2.66 4 3 C3.67 3.99 3.34 4.98 3 6 C2.01 6.33 1.02 6.66 0 7 C0 6.01 0 5.02 0 4 C-0.66 3.34 -1.32 2.68 -2 2 C-1.34 2 -0.68 2 0 2 C0 1.34 0 0.68 0 0 Z " fill="#362453" transform="translate(219,279)"/>
<path d="M0 0 C1.32 0.33 2.64 0.66 4 1 C4 2.32 4 3.64 4 5 C2.68 5.33 1.36 5.66 0 6 C0 4.02 0 2.04 0 0 Z " fill="#443168" transform="translate(62,265)"/>
<path d="M0 0 C0.66 0.33 1.32 0.66 2 1 C0.35 2.98 -1.3 4.96 -3 7 C-3.99 6.34 -4.98 5.68 -6 5 C-4.02 3.35 -2.04 1.7 0 0 Z " fill="#C79AE4" transform="translate(112,214)"/>
<path d="M0 0 C0 3 0 3 -2 5.1875 C-2.66 5.785625 -3.32 6.38375 -4 7 C-4 4 -4 4 -2 1.8125 C-1.34 1.214375 -0.68 0.61625 0 0 Z M-5 7 C-5 7.99 -5 8.98 -5 10 C-5.66 9.67 -6.32 9.34 -7 9 C-6.34 8.34 -5.68 7.68 -5 7 Z " fill="#332352" transform="translate(111,198)"/>
<path d="M0 0 C0.33 0.66 0.66 1.32 1 2 C0.22265625 3.9453125 0.22265625 3.9453125 -0.9375 6.125 C-1.31777344 6.84945312 -1.69804688 7.57390625 -2.08984375 8.3203125 C-2.39019531 8.87460938 -2.69054687 9.42890625 -3 10 C-3.66 9.67 -4.32 9.34 -5 9 C-5 6 -5 6 -3.625 4.5 C-3.08875 4.005 -2.5525 3.51 -2 3 C-1.34 2.01 -0.68 1.02 0 0 Z " fill="#F7F0FA" transform="translate(116,186)"/>
<path d="M0 0 C-0.66 0 -1.32 0 -2 0 C-2.66 1.32 -3.32 2.64 -4 4 C-5.32 3.01 -6.64 2.02 -8 1 C-4.93251126 -0.86240388 -3.40254489 -1.2151946 0 0 Z " fill="#3B2B52" transform="translate(149,14)"/>
<path d="M0 0 C0 1.65 0 3.3 0 5 C-1.98 4.01 -3.96 3.02 -6 2 C-6 1.67 -6 1.34 -6 1 C-1.125 0 -1.125 0 0 0 Z " fill="#382852" transform="translate(62,265)"/>
<path d="M0 0 C0.94875 0.04125 1.8975 0.0825 2.875 0.125 C2.545 1.115 2.215 2.105 1.875 3.125 C-0.435 2.795 -2.745 2.465 -5.125 2.125 C-3.125 0.125 -3.125 0.125 0 0 Z " fill="#46366A" transform="translate(36.125,250.875)"/>
<path d="M0 0 C0.763125 0.20625 1.52625 0.4125 2.3125 0.625 C-0.6875 2.125 -0.6875 2.125 -3.6875 3.625 C-4.3475 2.965 -5.0075 2.305 -5.6875 1.625 C-2.6875 -0.375 -2.6875 -0.375 0 0 Z " fill="#BE92DF" transform="translate(103.6875,221.375)"/>
<path d="M0 0 C0.66 0 1.32 0 2 0 C1.67 1.65 1.34 3.3 1 5 C-0.98 5.33 -2.96 5.66 -5 6 C-3.38405168 3.95880212 -1.7143618 1.95927063 0 0 Z " fill="#F2E8F5" transform="translate(96,168)"/>
<path d="M0 0 C2.31 0 4.62 0 7 0 C6.34 1.32 5.68 2.64 5 4 C2.03 3.505 2.03 3.505 -1 3 C-0.67 2.01 -0.34 1.02 0 0 Z " fill="#432F68" transform="translate(169,148)"/>
<path d="M0 0 C2.475 0.99 2.475 0.99 5 2 C4.67 2.99 4.34 3.98 4 5 C1.03 4.505 1.03 4.505 -2 4 C-1.34 2.68 -0.68 1.36 0 0 Z " fill="#4C3B6D" transform="translate(202,36)"/>
</svg>
